<?xml version="1.0" encoding="utf-8"?>
<!-- Svg Vector Icons : http://www.onlinewebfonts.com/icon -->
<!DOCTYPE svg PUBLIC "-//W3C//DTD SVG 1.1//EN" "http://www.w3.org/Graphics/SVG/1.1/DTD/svg11.dtd">
<svg version="1.1" xmlns="http://www.w3.org/2000/svg" xmlns:xlink="http://www.w3.org/1999/xlink" x="0px" y="0px" viewBox="0 0 1000 1000" enable-background="new 0 0 1000 1000" xml:space="preserve">
<metadata> Svg Vector Icons : http://www.onlinewebfonts.com/icon </metadata>
<g><g transform="translate(0.000000,511.000000) scale(0.100000,-0.100000)"><path d="M4662,4975.4c-186.4-17.5-530.2-75.7-559.3-93.2c-29.1-19.4-155.4-433.1-198.1-660.3c-48.6-252.5-52.4-584.6-9.7-772.9c81.6-347.6,268-578.7,802.1-984.6c188.4-143.7,398.1-316.6,462.2-384.5c118.5-122.4,260.3-322.4,260.3-367.1c0-31.1,42.7-9.7,161.2,77.7c54.4,42.7,244.7,165.1,421.5,273.8c518.5,318.5,705,481.6,825.4,718.6c205.9,405.9,135.9,1052.6-188.4,1751.8c-77.7,168.9-79.6,170.9-186.4,209.7C5924.3,4942.4,5238.8,5031.7,4662,4975.4z"/><path d="M3632.7,4926.8c-192.3-52.4-407.8-202-638.9-444.7c-180.6-190.3-264.1-355.4-262.2-524.4c0-159.2,48.6-256.4,235-471.9c246.6-283.6,336-491.4,336-771c0-161.2-31.1-316.6-130.1-648.7c-93.2-320.4-99-499.1-21.4-668.1c42.7-91.3,66-118.5,126.2-141.8c438.9-180.6,728.3-353.4,965.2-576.8l135.9-128.2L4528,695c83.5,79.6,200,174.8,258.3,215.6c83.5,54.4,124.3,99.1,178.7,200c38.8,69.9,102.9,172.9,145.7,229.2c40.8,56.3,75.8,116.5,75.8,137.9c0,60.2-132.1,260.3-258.3,388.4c-66,68-275.8,240.8-464.2,384.5c-483.6,369-677.8,586.5-806,901.1c-85.4,211.7-106.8,369-97.1,689.4c7.8,316.6,58.3,586.5,169,914.7c33,93.2,58.3,176.7,58.3,186.5C3788,4963.7,3758.9,4959.8,3632.7,4926.8z"/><path d="M6994.4,4524.8c328.2-802.1,355.4-1493.5,71.8-1971.2c-104.8-176.7-347.6-402-629.2-582.6c-625.4-404-722.5-468.1-815.7-549.6c-54.4-46.6-124.3-112.6-151.5-147.6l-52.4-62.1l93.2,29.1c50.5,15.5,192.3,50.5,314.6,75.7c1266.3,269.9,2214,780.7,2641.3,1419.7l97.1,145.7l-60.2,169c-31.1,93.2-85.4,221.4-116.5,285.5c-252.5,504.9-792.3,1025.4-1367.2,1316.7l-99.1,50.5L6994.4,4524.8z"/><path d="M2533.4,4509.3c-297.1-188.4-693.3-567.1-912.8-872c-217.5-301-413.7-675.8-539.9-1025.4l-50.5-143.7l40.8-56.3c106.8-149.5,547.7-487.5,852.6-654.5c231.1-126.2,858.4-374.8,883.7-351.5c1.9,3.9-1.9,58.3-11.7,122.3c-23.3,147.6,3.9,349.6,89.3,644.8c172.8,607.9,147.6,772.9-176.7,1136.1c-79.6,89.3-170.9,215.6-202,279.7c-139.8,283.5-116.5,586.5,69.9,879.8c36.9,54.4,62.1,101,60.2,101C2632.5,4569.5,2587.8,4542.3,2533.4,4509.3z"/><path d="M8851,2775c-407.8-794.3-1419.7-1410-2825.7-1722.6c-200-44.7-437-106.8-528.2-137.9c-320.4-112.6-592.3-281.6-813.7-508.8l-106.8-106.8l69.9-141.8c236.9-473.9,273.8-1060.4,112.6-1738.2c-21.4-91.3-38.8-174.8-38.8-188.4c0-19.4,122.3-200,306.8-456.4l33-44.7l147.6,190.3C6200.1-784.9,7674.1,75.5,9214.2,265.8c137.9,17.5,236.9,38.8,246.6,52.4c54.4,89.4,62.1,930.3,9.7,1221.6c-64.1,370.9-155.4,668.1-295.2,967.2c-89.4,192.3-215.6,411.7-237,411.7C8930.7,2918.7,8891.8,2852.7,8851,2775z"/><path d="M517.5,2409.9c-40.8-576.8,0-1398.3,91.3-1909.1l42.7-231.1l188.4-23.3c724.4-91.3,1547.8-345.7,2182.9-675.8c464.2-242.8,809.8-483.6,1206-842.9l235-215.6l33,169c48.6,258.3,60.2,637,21.4,852.6c-99,569-419.5,971-1015.7,1272.1c-240.8,122.3-421.4,192.3-827.3,316.6c-584.6,178.7-1046.8,409.8-1441,718.6c-190.3,149.6-473.9,440.9-600.1,617.6c-50.5,71.9-95.2,130.1-97.1,130.1C533.1,2588.5,525.3,2508.9,517.5,2409.9z"/><path d="M168-190.6c145.7-392.3,407.8-881.7,673.9-1258.5c683.6-961.3,1732.3-1730.4,2839.3-2081.9c139.8-42.7,283.5-93.2,320.4-110.7c143.7-69.9,248.6-378.7,266.1-790.4c5.8-167,19.4-268,36.9-297.1l27.2-42.7h695.3c386.5,0,705,7.8,720.5,17.5c19.4,13.6,31.1,62.1,36.9,151.5c5.8,110.7,33,196.1,174.8,553.5c116.5,291.3,180.6,427.3,207.8,440.8c21.4,11.7,153.4,60.2,291.3,108.8c528.2,186.4,1196.3,559.3,1641.1,914.7c549.6,440.9,1075.9,1064.3,1421.6,1687.7c169,301,404,850.6,376.8,877.8c-19.4,21.4-670-31.1-914.7-71.9c-907-153.4-1777-547.7-2515-1140c-372.9-299.1-852.6-806-1130.3-1192.5l-110.7-157.3l85.5-172.8c110.7-219.5,219.4-491.4,308.8-773c73.8-233,81.6-293.2,50.5-351.5c-40.8-75.8-190.3-87.4-246.7-17.5c-11.7,15.6-48.6,118.5-83.5,231.1C4982.4-2492,4337.6-1614.2,3370.5-986.9C2539.3-445,1389.5-81.8,321.4-21.6L100-8L168-190.6z"/></g></g>
</svg>