<?xml version="1.0" standalone="no"?>
<!DOCTYPE svg PUBLIC "-//W3C//DTD SVG 20010904//EN"
 "http://www.w3.org/TR/2001/REC-SVG-20010904/DTD/svg10.dtd">
<svg version="1.0" xmlns="http://www.w3.org/2000/svg"
 width="640.000000pt" height="640.000000pt" viewBox="0 0 640.000000 640.000000"
 preserveAspectRatio="xMidYMid meet">
<metadata>
Created by potrace 1.11, written by Peter Selinger 2001-2013
</metadata>
<g transform="translate(0.000000,640.000000) scale(0.100000,-0.100000)"
fill="#000000" stroke="none">
<path d="M3133 4575 c-248 -416 -588 -906 -879 -1266 -85 -106 -216 -263 -223
-269 -4 -3 -44 -49 -90 -102 -45 -54 -88 -98 -94 -99 -7 -1 -22 -2 -35 -2 -24
-2 -662 -416 -662 -430 0 -4 10 -7 22 -5 20 2 141 -9 192 -17 44 -8 33 -25
-86 -136 -347 -325 -670 -589 -940 -771 l-88 -59 0 -299 0 -300 2913 2 2912 3
-2 63 c-3 74 -29 130 -75 166 -21 16 -124 52 -285 102 -139 43 -249 81 -245
85 4 3 139 16 301 28 162 12 298 24 304 28 6 3 7 35 3 82 -8 97 -35 152 -126
256 -74 85 -75 95 -7 95 20 0 37 3 37 8 0 4 22 6 50 6 27 -1 50 1 50 5 0 43
-25 191 -42 246 -25 81 -154 338 -259 517 -361 611 -776 1092 -1279 1478 -279
214 -550 369 -875 500 -124 50 -341 116 -419 126 -45 7 -45 7 -73 -41z m165
-731 c719 -115 1420 -499 2013 -1100 203 -207 354 -387 517 -619 91 -130 101
-159 45 -137 -15 6 -90 23 -167 37 -76 15 -148 30 -160 35 -12 4 -84 57 -159
118 -482 385 -1015 657 -1653 842 -161 46 -406 97 -509 106 l-70 5 -100 -92
c-134 -123 -392 -346 -421 -362 -7 -4 -55 1 -106 12 -139 30 -293 65 -297 68
-2 1 22 30 54 65 349 386 597 676 805 942 45 58 81 96 92 96 10 0 62 -7 116
-16z m-1335 -1540 c73 -9 136 -19 140 -24 14 -12 -352 -263 -629 -431 -279
-169 -686 -389 -719 -389 -26 0 -9 17 68 66 223 144 601 451 884 717 48 45 91
77 103 77 11 0 80 -7 153 -16z m1582 -214 c220 -28 422 -54 448 -57 36 -4 47
-3 45 7 -5 21 23 24 28 3 4 -14 20 -22 62 -31 100 -20 152 -23 152 -9 0 9 3 8
9 -1 5 -9 72 -22 197 -38 104 -13 209 -28 234 -34 90 -21 210 -64 207 -75 -2
-6 -216 -29 -533 -56 -291 -26 -569 -51 -619 -58 -96 -12 -480 -47 -890 -81
-137 -11 -277 -25 -310 -30 -93 -14 -637 -62 -643 -56 -3 3 26 20 64 37 296
133 683 326 924 459 129 72 150 80 185 76 22 -2 220 -27 440 -56z m0 -459 c-8
-13 -35 -15 -35 -2 0 5 8 11 18 13 21 5 26 2 17 -11z m979 -54 l89 -59 81 16
c45 9 158 27 251 41 94 14 227 34 298 45 192 30 189 31 350 -52 l140 -73 -154
-6 c-152 -6 -1041 -14 -1109 -10 -29 2 -32 4 -15 11 11 5 45 12 75 17 l55 8
-92 59 c-51 33 -93 63 -93 68 0 13 31 -3 124 -65z"/>
<path d="M1780 4407 c-124 -84 -354 -240 -512 -346 l-288 -194 0 -298 c0 -165
2 -299 5 -299 2 0 19 6 37 14 18 8 114 40 213 71 99 31 186 58 193 61 8 2 12
0 10 -6 -3 -9 -178 -157 -365 -308 l-93 -74 0 -298 0 -298 71 -7 c68 -7 72 -6
114 24 24 17 45 31 48 31 3 0 132 85 257 170 8 6 77 51 153 100 75 50 137 94
137 98 0 4 -63 19 -141 34 -78 15 -144 29 -147 33 -3 3 44 56 104 118 61 62
217 222 347 355 l237 244 0 180 c0 165 -1 180 -17 174 -9 -4 -64 -11 -122 -16
-59 -6 -135 -15 -171 -21 -131 -22 -130 -19 33 129 l147 134 0 174 c0 133 -3
174 -12 173 -7 0 -114 -69 -238 -152z m-263 -818 c43 -29 72 -54 66 -56 -14
-5 -173 96 -173 109 0 15 22 4 107 -53z"/>
</g>
</svg>
